<svg width="63" height="88" viewBox="0 0 63 88" fill="none" xmlns="http://www.w3.org/2000/svg">
<path d="M60 0H3C1.34315 0 0 1.34315 0 3V85C0 86.6569 1.34315 88 3 88H60C61.6569 88 63 86.6569 63 85V3C63 1.34315 61.6569 0 60 0Z" fill="white"/>
<path d="M56.381 4H6.61905C5.17259 4 4 5.22104 4 6.72727V81.2727C4 82.779 5.17259 84 6.61905 84H56.381C57.8274 84 59 82.779 59 81.2727V6.72727C59 5.22104 57.8274 4 56.381 4Z" fill="#164450"/>
<path d="M43.4153 79.3694C38.7309 72.2953 34.7773 65.399 31.5 58.8826C28.2227 65.399 24.2691 72.2953 19.5847 79.3694M7.67084 7.31741C17.1172 36.7138 25.2863 55.3332 31.5 65.6921C37.7137 55.3332 45.8827 36.7138 55.3291 7.31741H7.67084ZM43.4153 8.63054C38.7309 15.7047 34.7773 22.601 31.5 29.1174C28.2227 22.601 24.2691 15.7047 19.5847 8.63054H43.4153ZM7.67084 80.6826C17.1172 51.2862 25.2863 32.6668 31.5 22.3079C37.7137 32.6668 45.8827 51.2862 55.3291 80.6826H7.67084Z" stroke="white" stroke-width="0.965"/>
</svg>
